<?xml version="1.0" encoding="utf-8"?>
<svg viewBox="0 0 50 50" xmlns="http://www.w3.org/2000/svg">
  <path d="M 31.494141 5.1503906 L 5.9277344 7.0019531 C 5.919914517781525 7.002512246605985 5.912101471749679 7.003163325419785 5.9042969 7.0039062 C 5.891238762865892 7.005601985206874 5.87821538951519 7.007555499529983 5.8652344 7.0097656 C 5.841010918032916 7.012788594078388 5.816906238473684 7.016697479160234 5.7929688 7.0214844 C 5.783164249144905 7.023940373084232 5.77339749411204 7.026544838876321 5.7636719 7.0292969 C 5.752560591965201 7.031712123786355 5.74149128275352 7.034316669055082 5.7304688 7.0371094 C 5.7060920872647864 7.044003820894303 5.681986131651588 7.051821960533018 5.6582031 7.0605469 C 5.642415305536375 7.066659497926239 5.626785268114295 7.073171996806451 5.6113281 7.0800781 C 5.602155936299501 7.083848581583415 5.593040361029719 7.087755280504323 5.5839844 7.0917969 C 5.531463208628301 7.116039501078716 5.481144333308621 7.144793148775585 5.4335938 7.1777344 C 5.4250530681185225 7.1828162866431695 5.416588561572901 7.188025198360139 5.4082031 7.1933594 C 5.387395265018202 7.208844142332088 5.36719769282804 7.2251324919445175 5.3476562 7.2421875 C 5.343717667974032 7.246061300386671 5.339811300383909 7.249967667971315 5.3359375 7.2539062 C 5.319169107215228 7.268336003206521 5.302884114318579 7.283318212658999 5.2871094 7.2988281 C 5.277099916846627 7.309678225645633 5.2673318898727235 7.3207486384125415 5.2578125 7.3320312 C 5.242930459084219 7.348477145474538 5.228599633624224 7.3654136119414755 5.2148438 7.3828125 C 5.209554254993865 7.389257546696918 5.204345514382635 7.395768489137671 5.1992188 7.4023438 C 5.184110754474558 7.422626331842916 5.169777516740321 7.443474653353536 5.15625 7.4648438 C 5.152269720860257 7.471309505122129 5.148363200877408 7.477820327313119 5.1445312 7.484375 C 5.1313665899526635 7.505391835908075 5.118988266332369 7.52689106466815 5.1074219 7.5488281 C 5.102725549381372 7.557872509279637 5.098167717053961 7.566988173938003 5.09375 7.5761719 C 5.083048624688942 7.599870412811952 5.073275564523927 7.623977265684475 5.0644531 7.6484375 C 5.063139667563366 7.651035967990504 5.061837588205936 7.653640160039709 5.0605469 7.65625 C 5.040391736421566 7.712728729409334 5.0253572034326295 7.770905794730456 5.015625 7.8300781 C 5.013506399430122 7.840463060096888 5.011553019270193 7.8508810431445415 5.0097656 7.8613281 C 5.006088335733232 7.887905198318414 5.0034820605019386 7.914619511005318 5.0019531 7.9414062 C 5.001950557054485 7.942708298955434 5.001950557054485 7.944010401044566 5.0019531 7.9453125 C 5.000803373479347 7.9635204397993045 5.000152096428838 7.9817564310102505 5 8 L 5 33.738281 C 5 34.76391 5.3151542 35.766862 5.9042969 36.607422 C 5.9196973959069235 36.62955579318723 5.935986739962228 36.651057696670506 5.953125 36.671875 L 12.126953 44.101562 C 12.18652589608718 44.20877055190165 12.265310720881827 44.30410675911325 12.359375 44.382812 L 12.75 44.851562 C 12.799588274434871 44.91128183980855 12.855956971849759 44.96502890905041 12.917969 45.011719 C 13.50508 45.581386 14.317167 45.917563 15.193359 45.861328 L 42.193359 44.119141 C 43.762433 44.017718 45 42.697027 45 41.125 L 45 15.132812 C 45 14.209354 44.565523 13.390672 43.904297 12.839844 C 43.85749930115673 12.786249537424816 43.80511982755642 12.737798272965083 43.748047 12.695312 L 43.263672 12.337890999999999 C 43.2030874819645 12.280191851357733 43.135502202603 12.230322964457372 43.0625 12.189453 L 34.824219 6.1132812 C 33.865071 5.4054876 32.682705 5.0641541 31.494141 5.1503906 Z M 31.638672 7.1445312 C 32.352108 7.0927682 33.061867 7.29845 33.636719 7.7226562 L 39.767578 12.246094 L 14.742188 13.884765999999999 C 13.880567 13.941006 13.037689 13.622196 12.425781 13.011719 L 12.423828 13.011719 L 8.2539062 8.8398438 L 31.638672 7.1445312 Z M 7 10.414062 L 11.011719 14.425781 L 12 15.414062 L 12 40.818359 L 7.5390625 35.449219 C 7.1899317 34.947488 7 34.351269 7 33.738281 L 7 10.414062 Z M 41.935547 14.134766 C 42.526748 14.096822 43 14.54116 43 15.132812 L 43 41.125 C 43 41.660973 42.59938 42.08847 42.064453 42.123047 L 15.064453 43.865234 C 14.770856 43.884078 14.506356 43.783483 14.314453 43.605469 C 14.313802898747099 43.60481710190258 14.313151898096836 43.60416610125348 14.3125 43.603516 C 14.3125 43.603516 14.310547 43.601562 14.310547 43.601562 C 14.306465 43.597733 14.304796 43.59179 14.300781 43.587891 C 14.296925590113819 43.582644666887404 14.293019070902119 43.57743608572408 14.289062 43.572266 C 14.112238 43.393435 14 43.149431 14 42.867188 L 14 16.875 C 14 16.337536 14.39999 15.911571 14.935547 15.876953 L 41.935547 14.134766 Z M 38.496094 19 L 33.421875 19.28125 C 32.647875 19.36125 31.746094 19.938 31.746094 20.875 L 33.996094 21.0625 L 33.996094 31.753906 L 26.214844 19.751953 L 20.382812 20.080078 C 19.291812 20.160078 18.994141 20.970953 18.994141 22.001953 L 21.244141 22.001953 L 21.244141 37.566406 C 21.244141 37.566406 20.191844 37.850406 19.839844 37.941406 C 19.091844 38.134406 18.994141 38.784906 18.994141 39.253906 C 18.994141 39.253906 22.746656 39.065547 24.472656 38.935547 C 26.431656 38.785547 26.496094 37.472656 26.496094 37.472656 L 24.246094 37.003906 L 24.246094 25.470703 C 24.246094 25.470703 29.965844 34.660328 31.714844 37.361328 C 32.537844 38.630328 33.152375 38.878906 34.234375 38.878906 C 35.122375 38.878906 35.962141 38.616594 36.994141 38.058594 L 36.994141 20.697266 C 36.994141 20.697266 37.184203 20.687141 37.783203 20.494141 C 38.466203 20.273141 38.496094 19.656 38.496094 19 Z" style="fill: rgb(255, 255, 255);"/>
  <path d="M 35.121 5.711 L 43.343 11.775 C 43.434 11.832 43.502 11.882 43.578 11.948 L 44.047 12.294 C 44.124 12.354 44.191 12.416 44.253 12.481 C 44.975 13.106 45.471 14.092 45.5 15.133 L 45.5 41.125 C 45.48 42.009 45.114 42.914 44.55 43.515 C 43.986 44.117 43.107 44.541 42.226 44.618 L 15.225 46.36 C 14.238 46.398 13.257 46 12.591 45.391 C 12.514 45.327 12.435 45.253 12.366 45.172 L 11.994 44.725 C 11.881 44.616 11.801 44.52 11.722 44.396 L 5.567 36.99 C 5.544 36.961 5.516 36.924 5.495 36.894 C 4.872 35.985 4.511 34.839 4.5 33.738 L 4.5 7.996 C 4.5 7.971 4.5 7.971 4.502 7.946 C 4.502 7.944 4.503 7.915 4.503 7.913 C 4.505 7.876 4.512 7.814 4.517 7.777 C 4.519 7.763 4.519 7.763 4.522 7.749 C 4.537 7.668 4.563 7.566 4.59 7.488 L 4.598 7.463 L 4.604 7.45 L 4.594 7.479 C 4.598 7.469 4.602 7.458 4.607 7.446 L 4.612 7.435 C 4.614 7.431 4.616 7.426 4.618 7.423 L 4.607 7.444 C 4.619 7.415 4.633 7.382 4.643 7.359 C 4.649 7.347 4.659 7.328 4.665 7.316 C 4.681 7.286 4.699 7.255 4.716 7.227 C 4.721 7.218 4.728 7.206 4.734 7.197 C 4.753 7.168 4.784 7.123 4.805 7.095 C 4.812 7.086 4.82 7.076 4.827 7.067 C 4.845 7.044 4.862 7.024 4.881 7.004 C 4.894 6.988 4.923 6.957 4.937 6.942 C 4.958 6.921 4.974 6.907 4.993 6.89 C 4.994 6.888 5.013 6.871 5.019 6.865 C 5.046 6.842 5.111 6.793 5.14 6.771 C 5.151 6.764 5.159 6.76 5.168 6.754 C 5.231 6.713 5.308 6.669 5.38 6.635 C 5.393 6.63 5.404 6.625 5.415 6.62 C 5.435 6.612 5.464 6.6 5.486 6.591 C 5.519 6.579 5.574 6.562 5.608 6.552 C 5.623 6.549 5.631 6.547 5.642 6.544 C 5.656 6.54 5.681 6.535 5.695 6.531 C 5.728 6.525 5.76 6.52 5.791 6.515 C 5.809 6.512 5.839 6.508 5.857 6.506 C 5.868 6.505 5.881 6.504 5.892 6.503 L 31.458 4.652 C 32.734 4.575 34.083 4.964 35.121 5.711 Z M 31.53 5.649 L 5.964 7.501 C 5.959 7.501 5.961 7.501 5.96 7.501 C 5.956 7.501 5.957 7.501 5.949 7.503 C 5.934 7.504 5.919 7.506 5.904 7.509 C 5.903 7.509 5.906 7.509 5.9 7.51 C 5.893 7.512 5.862 7.52 5.858 7.521 C 5.849 7.523 5.847 7.524 5.836 7.528 C 5.828 7.531 5.825 7.532 5.815 7.537 C 5.81 7.539 5.793 7.546 5.788 7.548 C 5.754 7.563 5.748 7.567 5.718 7.589 C 5.715 7.591 5.701 7.6 5.69 7.607 C 5.69 7.607 5.69 7.607 5.69 7.607 C 5.69 7.607 5.69 7.607 5.69 7.607 C 5.684 7.611 5.678 7.614 5.677 7.615 C 5.665 7.624 5.684 7.611 5.679 7.617 C 5.666 7.628 5.65 7.643 5.647 7.646 C 5.645 7.649 5.646 7.647 5.64 7.654 C 5.631 7.665 5.616 7.682 5.607 7.693 C 5.604 7.697 5.599 7.703 5.596 7.707 C 5.589 7.716 5.587 7.719 5.579 7.732 C 5.576 7.736 5.579 7.733 5.576 7.737 C 5.568 7.75 5.557 7.768 5.55 7.781 C 5.548 7.785 5.549 7.783 5.546 7.789 C 5.542 7.799 5.54 7.803 5.535 7.818 L 5.526 7.845 L 5.521 7.854 C 5.515 7.872 5.512 7.886 5.509 7.911 C 5.508 7.918 5.504 7.937 5.504 7.94 C 5.502 7.95 5.502 7.953 5.501 7.97 C 5.501 7.967 5.502 7.946 5.502 7.944 C 5.501 7.956 5.5 7.993 5.5 8.004 L 5.5 33.738 C 5.488 34.689 5.758 35.548 6.314 36.32 C 6.323 36.334 6.328 36.341 6.339 36.354 L 12.512 43.782 L 12.548 43.826 L 12.564 43.859 C 12.598 43.928 12.618 43.953 12.68 43.999 L 12.708 44.02 L 13.134 44.531 C 13.164 44.57 13.179 44.584 13.219 44.612 L 13.243 44.629 L 13.266 44.653 C 13.775 45.171 14.397 45.437 15.161 45.362 L 42.161 43.62 C 42.849 43.596 43.373 43.309 43.82 42.832 C 44.267 42.355 44.52 41.813 44.5 41.125 L 44.5 15.133 C 44.529 14.327 44.185 13.7 43.584 13.224 L 43.552 13.198 L 43.528 13.169 C 43.499 13.134 43.486 13.122 43.449 13.096 L 42.967 12.74 L 42.936 12.717 L 42.919 12.7 C 42.882 12.662 42.865 12.65 42.818 12.626 L 42.797 12.615 L 34.527 6.516 C 33.647 5.847 32.631 5.554 31.53 5.649 Z M 31.602 6.646 C 32.404 6.603 33.28 6.857 33.934 7.32 L 41.165 12.656 L 14.775 14.384 C 13.808 14.424 12.773 14.033 12.073 13.366 L 12.226 13.512 L 12.217 13.512 L 7.128 8.42 Z M 9.38 9.26 L 12.631 12.512 L 12.641 12.512 L 12.779 12.658 C 13.303 13.211 13.953 13.458 14.71 13.386 L 38.37 11.837 L 33.34 8.125 C 32.844 7.74 32.301 7.582 31.675 7.643 Z M 12.5 15.207 L 12.5 42.203 L 11.615 41.138 L 7.129 35.735 C 6.747 35.166 6.512 34.427 6.5 33.738 L 6.5 9.207 Z M 7.5 33.738 C 7.488 34.275 7.629 34.714 7.934 35.142 L 11.5 39.434 L 11.5 15.621 L 7.5 11.621 Z M 41.904 13.636 C 42.304 13.633 42.77 13.788 43.032 14.033 C 43.293 14.278 43.477 14.733 43.5 15.133 L 43.5 41.125 C 43.481 41.489 43.325 41.912 43.098 42.154 C 42.871 42.396 42.459 42.579 42.097 42.622 L 15.096 44.364 C 14.701 44.367 14.241 44.19 13.967 43.964 C 13.895 43.848 13.89 43.839 13.952 43.947 L 13.986 44.005 L 13.898 43.884 C 13.895 43.881 13.895 43.879 13.892 43.876 L 13.901 43.888 L 13.934 43.924 C 13.707 43.674 13.523 43.254 13.5 42.867 L 13.5 16.875 C 13.519 16.51 13.675 16.088 13.902 15.845 C 14.129 15.603 14.541 15.42 14.903 15.378 Z M 14.968 16.376 C 14.794 16.368 14.738 16.416 14.632 16.529 C 14.525 16.643 14.481 16.702 14.5 16.875 L 14.5 42.867 C 14.477 43.044 14.517 43.113 14.643 43.22 L 14.649 43.229 C 14.651 43.233 14.653 43.236 14.656 43.24 L 14.666 43.25 C 14.667 43.251 14.668 43.252 14.668 43.252 C 14.68 43.265 14.69 43.277 14.701 43.288 C 14.702 43.289 14.703 43.29 14.704 43.292 L 14.701 43.288 C 14.793 43.384 14.863 43.397 15.032 43.366 L 42.032 41.624 C 42.205 41.632 42.261 41.584 42.368 41.47 C 42.475 41.356 42.519 41.297 42.5 41.125 L 42.5 15.133 C 42.523 14.941 42.47 14.878 42.347 14.762 C 42.224 14.647 42.158 14.599 41.968 14.634 Z M 37.937 20.97 C 37.274 21.175 37.615 21.065 37.494 21.097 L 37.494 38.358 L 37.232 38.498 C 36.156 39.075 35.197 39.379 34.234 39.379 C 33.059 39.379 32.234 38.998 31.295 37.633 C 29.544 34.928 26.439 29.933 24.746 27.219 L 24.746 36.597 L 27.055 37.078 L 26.995 37.497 C 26.995 37.497 26.964 37.989 26.619 38.448 C 26.313 38.854 25.617 39.312 24.51 39.434 C 22.778 39.565 19.019 39.753 19.019 39.753 L 18.492 39.78 L 18.494 39.254 C 18.495 38.998 18.53 38.603 18.686 38.278 C 18.84 37.957 19.227 37.619 19.715 37.457 C 20.064 37.367 20.407 37.274 20.744 37.183 L 20.744 22.502 L 18.491 22.502 L 18.494 22.002 C 18.497 21.447 18.593 20.845 18.854 20.422 C 19.121 19.988 19.693 19.66 20.355 19.581 L 26.476 19.236 L 33.496 30.064 L 33.496 21.523 L 31.219 21.333 L 31.246 20.875 C 31.281 20.279 31.587 19.698 31.972 19.374 C 32.355 19.051 32.942 18.838 33.394 18.782 L 38.996 18.472 L 38.996 19 C 38.996 19.334 38.986 19.739 38.867 20.076 C 38.745 20.425 38.391 20.784 37.937 20.97 Z M 37.924 19.744 C 37.991 19.553 37.969 19.608 37.979 19.529 L 33.452 19.78 C 33.139 19.808 32.877 19.92 32.616 20.139 C 32.356 20.358 32.401 20.322 32.338 20.423 L 34.496 20.602 L 34.496 33.444 L 25.953 20.267 L 20.411 20.579 C 19.982 20.58 19.859 20.697 19.705 20.947 C 19.544 21.207 19.542 21.278 19.515 21.502 L 21.744 21.502 L 21.744 37.949 L 21.374 38.049 C 21.374 38.049 20.32 38.334 19.965 38.425 C 19.705 38.457 19.669 38.54 19.587 38.711 C 19.585 38.715 19.583 38.719 19.581 38.723 C 20.715 38.664 22.716 38.567 24.435 38.437 C 25.287 38.409 25.603 38.135 25.819 37.847 C 25.82 37.846 25.822 37.844 25.823 37.843 L 23.746 37.41 L 23.746 23.721 L 24.671 25.207 C 24.671 25.207 30.388 34.392 32.135 37.09 C 32.842 38.263 33.246 38.379 34.234 38.379 C 35.048 38.379 35.637 38.198 36.494 37.758 L 36.494 20.192 L 36.968 20.198 C 36.968 20.198 37.094 20.2 37.629 20.018 C 37.857 19.984 37.861 19.924 37.924 19.744 Z" style="fill: none;"/>
  <path d="M 35.121 5.711 L 43.343 11.775 C 43.434 11.832 43.502 11.882 43.578 11.948 L 44.047 12.294 C 44.124 12.354 44.191 12.416 44.253 12.481 C 44.975 13.106 45.471 14.092 45.5 15.133 L 45.5 41.125 C 45.48 42.009 45.114 42.914 44.55 43.515 C 43.986 44.117 43.107 44.541 42.226 44.618 L 15.225 46.36 C 14.238 46.398 13.257 46 12.591 45.391 C 12.514 45.327 12.435 45.253 12.366 45.172 L 11.994 44.725 C 11.881 44.616 11.801 44.52 11.722 44.396 L 5.567 36.99 C 5.544 36.961 5.516 36.924 5.495 36.894 C 4.872 35.985 4.511 34.839 4.5 33.738 L 4.5 7.996 C 4.5 7.971 4.5 7.971 4.502 7.946 C 4.502 7.944 4.503 7.915 4.503 7.913 C 4.505 7.876 4.512 7.814 4.517 7.777 C 4.519 7.763 4.519 7.763 4.522 7.749 C 4.537 7.668 4.563 7.566 4.59 7.488 L 4.598 7.463 L 4.604 7.45 L 4.594 7.479 C 4.598 7.469 4.602 7.458 4.607 7.446 L 4.612 7.435 C 4.614 7.431 4.616 7.426 4.618 7.423 L 4.607 7.444 C 4.619 7.415 4.633 7.382 4.643 7.359 C 4.649 7.347 4.659 7.328 4.665 7.316 C 4.681 7.286 4.699 7.255 4.716 7.227 C 4.721 7.218 4.728 7.206 4.734 7.197 C 4.753 7.168 4.784 7.123 4.805 7.095 C 4.812 7.086 4.82 7.076 4.827 7.067 C 4.845 7.044 4.862 7.024 4.881 7.004 C 4.894 6.988 4.923 6.957 4.937 6.942 C 4.958 6.921 4.974 6.907 4.993 6.89 C 4.994 6.888 5.013 6.871 5.019 6.865 C 5.046 6.842 5.111 6.793 5.14 6.771 C 5.151 6.764 5.159 6.76 5.168 6.754 C 5.231 6.713 5.308 6.669 5.38 6.635 C 5.393 6.63 5.404 6.625 5.415 6.62 C 5.435 6.612 5.464 6.6 5.486 6.591 C 5.519 6.579 5.574 6.562 5.608 6.552 C 5.623 6.549 5.631 6.547 5.642 6.544 C 5.656 6.54 5.681 6.535 5.695 6.531 C 5.728 6.525 5.76 6.52 5.791 6.515 C 5.809 6.512 5.839 6.508 5.857 6.506 C 5.868 6.505 5.881 6.504 5.892 6.503 L 31.458 4.652 C 32.734 4.575 34.083 4.964 35.121 5.711 Z M 31.53 5.649 L 5.964 7.501 C 5.959 7.501 5.961 7.501 5.96 7.501 C 5.956 7.501 5.957 7.501 5.949 7.503 C 5.934 7.504 5.919 7.506 5.904 7.509 C 5.903 7.509 5.906 7.509 5.9 7.51 C 5.893 7.512 5.862 7.52 5.858 7.521 C 5.849 7.523 5.847 7.524 5.836 7.528 C 5.828 7.531 5.825 7.532 5.815 7.537 C 5.81 7.539 5.793 7.546 5.788 7.548 C 5.754 7.563 5.748 7.567 5.718 7.589 C 5.715 7.591 5.701 7.6 5.69 7.607 C 5.69 7.607 5.69 7.607 5.69 7.607 C 5.69 7.607 5.69 7.607 5.69 7.607 C 5.684 7.611 5.678 7.614 5.677 7.615 C 5.665 7.624 5.684 7.611 5.679 7.617 C 5.666 7.628 5.65 7.643 5.647 7.646 C 5.645 7.649 5.646 7.647 5.64 7.654 C 5.631 7.665 5.616 7.682 5.607 7.693 C 5.604 7.697 5.599 7.703 5.596 7.707 C 5.589 7.716 5.587 7.719 5.579 7.732 C 5.576 7.736 5.579 7.733 5.576 7.737 C 5.568 7.75 5.557 7.768 5.55 7.781 C 5.548 7.785 5.549 7.783 5.546 7.789 C 5.542 7.799 5.54 7.803 5.535 7.818 L 5.526 7.845 L 5.521 7.854 C 5.515 7.872 5.512 7.886 5.509 7.911 C 5.508 7.918 5.504 7.937 5.504 7.94 C 5.502 7.95 5.502 7.953 5.501 7.97 C 5.501 7.967 5.502 7.946 5.502 7.944 C 5.501 7.956 5.5 7.993 5.5 8.004 L 5.5 33.738 C 5.488 34.689 5.758 35.548 6.314 36.32 C 6.323 36.334 6.328 36.341 6.339 36.354 L 12.512 43.782 L 12.548 43.826 L 12.564 43.859 C 12.598 43.928 12.618 43.953 12.68 43.999 L 12.708 44.02 L 13.134 44.531 C 13.164 44.57 13.179 44.584 13.219 44.612 L 13.243 44.629 L 13.266 44.653 C 13.775 45.171 14.397 45.437 15.161 45.362 L 42.161 43.62 C 42.849 43.596 43.373 43.309 43.82 42.832 C 44.267 42.355 44.52 41.813 44.5 41.125 L 44.5 15.133 C 44.529 14.327 44.185 13.7 43.584 13.224 L 43.552 13.198 L 43.528 13.169 C 43.499 13.134 43.486 13.122 43.449 13.096 L 42.967 12.74 L 42.936 12.717 L 42.919 12.7 C 42.882 12.662 42.865 12.65 42.818 12.626 L 42.797 12.615 L 34.527 6.516 C 33.647 5.847 32.631 5.554 31.53 5.649 Z M 31.602 6.646 C 32.404 6.603 33.28 6.857 33.934 7.32 L 41.165 12.656 L 14.775 14.384 C 13.808 14.424 12.773 14.033 12.073 13.366 L 12.226 13.512 L 12.217 13.512 L 7.128 8.42 Z M 9.38 9.26 L 12.631 12.512 L 12.641 12.512 L 12.779 12.658 C 13.303 13.211 13.953 13.458 14.71 13.386 L 38.37 11.837 L 33.34 8.125 C 32.844 7.74 32.301 7.582 31.675 7.643 Z M 12.5 15.207 L 12.5 42.203 L 11.615 41.138 L 7.129 35.735 C 6.747 35.166 6.512 34.427 6.5 33.738 L 6.5 9.207 Z M 7.5 33.738 C 7.488 34.275 7.629 34.714 7.934 35.142 L 11.5 39.434 L 11.5 15.621 L 7.5 11.621 Z M 41.904 13.636 C 42.304 13.633 42.77 13.788 43.032 14.033 C 43.293 14.278 43.477 14.733 43.5 15.133 L 43.5 41.125 C 43.481 41.489 43.325 41.912 43.098 42.154 C 42.871 42.396 42.459 42.579 42.097 42.622 L 15.096 44.364 C 14.701 44.367 14.241 44.19 13.967 43.964 C 13.895 43.848 13.89 43.839 13.952 43.947 L 13.986 44.005 L 13.898 43.884 C 13.895 43.881 13.895 43.879 13.892 43.876 L 13.901 43.888 L 13.934 43.924 C 13.707 43.674 13.523 43.254 13.5 42.867 L 13.5 16.875 C 13.519 16.51 13.675 16.088 13.902 15.845 C 14.129 15.603 14.541 15.42 14.903 15.378 Z M 14.968 16.376 C 14.794 16.368 14.738 16.416 14.632 16.529 C 14.525 16.643 14.481 16.702 14.5 16.875 L 14.5 42.867 C 14.477 43.044 14.517 43.113 14.643 43.22 L 14.649 43.229 C 14.651 43.233 14.653 43.236 14.656 43.24 L 14.666 43.25 C 14.667 43.251 14.668 43.252 14.668 43.252 C 14.68 43.265 14.69 43.277 14.701 43.288 C 14.702 43.289 14.703 43.29 14.704 43.292 L 14.701 43.288 C 14.793 43.384 14.863 43.397 15.032 43.366 L 42.032 41.624 C 42.205 41.632 42.261 41.584 42.368 41.47 C 42.475 41.356 42.519 41.297 42.5 41.125 L 42.5 15.133 C 42.523 14.941 42.47 14.878 42.347 14.762 C 42.224 14.647 42.158 14.599 41.968 14.634 Z M 37.937 20.97 C 37.274 21.175 37.615 21.065 37.494 21.097 L 37.494 38.358 L 37.232 38.498 C 36.156 39.075 35.197 39.379 34.234 39.379 C 33.059 39.379 32.234 38.998 31.295 37.633 C 29.544 34.928 26.439 29.933 24.746 27.219 L 24.746 36.597 L 27.055 37.078 L 26.995 37.497 C 26.995 37.497 26.964 37.989 26.619 38.448 C 26.313 38.854 25.617 39.312 24.51 39.434 C 22.778 39.565 19.019 39.753 19.019 39.753 L 18.492 39.78 L 18.494 39.254 C 18.495 38.998 18.53 38.603 18.686 38.278 C 18.84 37.957 19.227 37.619 19.715 37.457 C 20.064 37.367 20.407 37.274 20.744 37.183 L 20.744 22.502 L 18.491 22.502 L 18.494 22.002 C 18.497 21.447 18.593 20.845 18.854 20.422 C 19.121 19.988 19.693 19.66 20.355 19.581 L 26.476 19.236 L 33.496 30.064 L 33.496 21.523 L 31.219 21.333 L 31.246 20.875 C 31.281 20.279 31.587 19.698 31.972 19.374 C 32.355 19.051 32.942 18.838 33.394 18.782 L 38.996 18.472 L 38.996 19 C 38.996 19.334 38.986 19.739 38.867 20.076 C 38.745 20.425 38.391 20.784 37.937 20.97 Z M 37.924 19.744 C 37.991 19.553 37.969 19.608 37.979 19.529 L 33.452 19.78 C 33.139 19.808 32.877 19.92 32.616 20.139 C 32.356 20.358 32.401 20.322 32.338 20.423 L 34.496 20.602 L 34.496 33.444 L 25.953 20.267 L 20.411 20.579 C 19.982 20.58 19.859 20.697 19.705 20.947 C 19.544 21.207 19.542 21.278 19.515 21.502 L 21.744 21.502 L 21.744 37.949 L 21.374 38.049 C 21.374 38.049 20.32 38.334 19.965 38.425 C 19.705 38.457 19.669 38.54 19.587 38.711 C 19.585 38.715 19.583 38.719 19.581 38.723 C 20.715 38.664 22.716 38.567 24.435 38.437 C 25.287 38.409 25.603 38.135 25.819 37.847 C 25.82 37.846 25.822 37.844 25.823 37.843 L 23.746 37.41 L 23.746 23.721 L 24.671 25.207 C 24.671 25.207 30.388 34.392 32.135 37.09 C 32.842 38.263 33.246 38.379 34.234 38.379 C 35.048 38.379 35.637 38.198 36.494 37.758 L 36.494 20.192 L 36.968 20.198 C 36.968 20.198 37.094 20.2 37.629 20.018 C 37.857 19.984 37.861 19.924 37.924 19.744 Z" style="fill: none;"/>
  <path d="M 35.121 5.711 L 43.343 11.775 C 43.434 11.832 43.502 11.882 43.578 11.948 L 44.047 12.294 C 44.124 12.354 44.191 12.416 44.253 12.481 C 44.975 13.106 45.471 14.092 45.5 15.133 L 45.5 41.125 C 45.48 42.009 45.114 42.914 44.55 43.515 C 43.986 44.117 43.107 44.541 42.226 44.618 L 15.225 46.36 C 14.238 46.398 13.257 46 12.591 45.391 C 12.514 45.327 12.435 45.253 12.366 45.172 L 11.994 44.725 C 11.881 44.616 11.801 44.52 11.722 44.396 L 5.567 36.99 C 5.544 36.961 5.516 36.924 5.495 36.894 C 4.872 35.985 4.511 34.839 4.5 33.738 L 4.5 7.996 C 4.5 7.971 4.5 7.971 4.502 7.946 C 4.502 7.944 4.503 7.915 4.503 7.913 C 4.505 7.876 4.512 7.814 4.517 7.777 C 4.519 7.763 4.519 7.763 4.522 7.749 C 4.537 7.668 4.563 7.566 4.59 7.488 L 4.598 7.463 L 4.604 7.45 L 4.594 7.479 C 4.598 7.469 4.602 7.458 4.607 7.446 L 4.612 7.435 C 4.614 7.431 4.616 7.426 4.618 7.423 L 4.607 7.444 C 4.619 7.415 4.633 7.382 4.643 7.359 C 4.649 7.347 4.659 7.328 4.665 7.316 C 4.681 7.286 4.699 7.255 4.716 7.227 C 4.721 7.218 4.728 7.206 4.734 7.197 C 4.753 7.168 4.784 7.123 4.805 7.095 C 4.812 7.086 4.82 7.076 4.827 7.067 C 4.845 7.044 4.862 7.024 4.881 7.004 C 4.894 6.988 4.923 6.957 4.937 6.942 C 4.958 6.921 4.974 6.907 4.993 6.89 C 4.994 6.888 5.013 6.871 5.019 6.865 C 5.046 6.842 5.111 6.793 5.14 6.771 C 5.151 6.764 5.159 6.76 5.168 6.754 C 5.231 6.713 5.308 6.669 5.38 6.635 C 5.393 6.63 5.404 6.625 5.415 6.62 C 5.435 6.612 5.464 6.6 5.486 6.591 C 5.519 6.579 5.574 6.562 5.608 6.552 C 5.623 6.549 5.631 6.547 5.642 6.544 C 5.656 6.54 5.681 6.535 5.695 6.531 C 5.728 6.525 5.76 6.52 5.791 6.515 C 5.809 6.512 5.839 6.508 5.857 6.506 C 5.868 6.505 5.881 6.504 5.892 6.503 L 31.458 4.652 C 32.734 4.575 34.083 4.964 35.121 5.711 Z M 31.53 5.649 L 5.964 7.501 C 5.959 7.501 5.961 7.501 5.96 7.501 C 5.956 7.501 5.957 7.501 5.949 7.503 C 5.934 7.504 5.919 7.506 5.904 7.509 C 5.903 7.509 5.906 7.509 5.9 7.51 C 5.893 7.512 5.862 7.52 5.858 7.521 C 5.849 7.523 5.847 7.524 5.836 7.528 C 5.828 7.531 5.825 7.532 5.815 7.537 C 5.81 7.539 5.793 7.546 5.788 7.548 C 5.754 7.563 5.748 7.567 5.718 7.589 C 5.715 7.591 5.701 7.6 5.69 7.607 C 5.69 7.607 5.69 7.607 5.69 7.607 C 5.69 7.607 5.69 7.607 5.69 7.607 C 5.684 7.611 5.678 7.614 5.677 7.615 C 5.665 7.624 5.684 7.611 5.679 7.617 C 5.666 7.628 5.65 7.643 5.647 7.646 C 5.645 7.649 5.646 7.647 5.64 7.654 C 5.631 7.665 5.616 7.682 5.607 7.693 C 5.604 7.697 5.599 7.703 5.596 7.707 C 5.589 7.716 5.587 7.719 5.579 7.732 C 5.576 7.736 5.579 7.733 5.576 7.737 C 5.568 7.75 5.557 7.768 5.55 7.781 C 5.548 7.785 5.549 7.783 5.546 7.789 C 5.542 7.799 5.54 7.803 5.535 7.818 L 5.526 7.845 L 5.521 7.854 C 5.515 7.872 5.512 7.886 5.509 7.911 C 5.508 7.918 5.504 7.937 5.504 7.94 C 5.502 7.95 5.502 7.953 5.501 7.97 C 5.501 7.967 5.502 7.946 5.502 7.944 C 5.501 7.956 5.5 7.993 5.5 8.004 L 5.5 33.738 C 5.488 34.689 5.758 35.548 6.314 36.32 C 6.323 36.334 6.328 36.341 6.339 36.354 L 12.512 43.782 L 12.548 43.826 L 12.564 43.859 C 12.598 43.928 12.618 43.953 12.68 43.999 L 12.708 44.02 L 13.134 44.531 C 13.164 44.57 13.179 44.584 13.219 44.612 L 13.243 44.629 L 13.266 44.653 C 13.775 45.171 14.397 45.437 15.161 45.362 L 42.161 43.62 C 42.849 43.596 43.373 43.309 43.82 42.832 C 44.267 42.355 44.52 41.813 44.5 41.125 L 44.5 15.133 C 44.529 14.327 44.185 13.7 43.584 13.224 L 43.552 13.198 L 43.528 13.169 C 43.499 13.134 43.486 13.122 43.449 13.096 L 42.967 12.74 L 42.936 12.717 L 42.919 12.7 C 42.882 12.662 42.865 12.65 42.818 12.626 L 42.797 12.615 L 34.527 6.516 C 33.647 5.847 32.631 5.554 31.53 5.649 Z M 31.602 6.646 C 32.404 6.603 33.28 6.857 33.934 7.32 L 41.165 12.656 L 14.775 14.384 C 13.808 14.424 12.773 14.033 12.073 13.366 L 12.226 13.512 L 12.217 13.512 L 7.128 8.42 Z M 9.38 9.26 L 12.631 12.512 L 12.641 12.512 L 12.779 12.658 C 13.303 13.211 13.953 13.458 14.71 13.386 L 38.37 11.837 L 33.34 8.125 C 32.844 7.74 32.301 7.582 31.675 7.643 Z M 12.5 15.207 L 12.5 42.203 L 11.615 41.138 L 7.129 35.735 C 6.747 35.166 6.512 34.427 6.5 33.738 L 6.5 9.207 Z M 7.5 33.738 C 7.488 34.275 7.629 34.714 7.934 35.142 L 11.5 39.434 L 11.5 15.621 L 7.5 11.621 Z M 41.904 13.636 C 42.304 13.633 42.77 13.788 43.032 14.033 C 43.293 14.278 43.477 14.733 43.5 15.133 L 43.5 41.125 C 43.481 41.489 43.325 41.912 43.098 42.154 C 42.871 42.396 42.459 42.579 42.097 42.622 L 15.096 44.364 C 14.701 44.367 14.241 44.19 13.967 43.964 C 13.895 43.848 13.89 43.839 13.952 43.947 L 13.986 44.005 L 13.898 43.884 C 13.895 43.881 13.895 43.879 13.892 43.876 L 13.901 43.888 L 13.934 43.924 C 13.707 43.674 13.523 43.254 13.5 42.867 L 13.5 16.875 C 13.519 16.51 13.675 16.088 13.902 15.845 C 14.129 15.603 14.541 15.42 14.903 15.378 Z M 14.968 16.376 C 14.794 16.368 14.738 16.416 14.632 16.529 C 14.525 16.643 14.481 16.702 14.5 16.875 L 14.5 42.867 C 14.477 43.044 14.517 43.113 14.643 43.22 L 14.649 43.229 C 14.651 43.233 14.653 43.236 14.656 43.24 L 14.666 43.25 C 14.667 43.251 14.668 43.252 14.668 43.252 C 14.68 43.265 14.69 43.277 14.701 43.288 C 14.702 43.289 14.703 43.29 14.704 43.292 L 14.701 43.288 C 14.793 43.384 14.863 43.397 15.032 43.366 L 42.032 41.624 C 42.205 41.632 42.261 41.584 42.368 41.47 C 42.475 41.356 42.519 41.297 42.5 41.125 L 42.5 15.133 C 42.523 14.941 42.47 14.878 42.347 14.762 C 42.224 14.647 42.158 14.599 41.968 14.634 Z M 37.937 20.97 C 37.274 21.175 37.615 21.065 37.494 21.097 L 37.494 38.358 L 37.232 38.498 C 36.156 39.075 35.197 39.379 34.234 39.379 C 33.059 39.379 32.234 38.998 31.295 37.633 C 29.544 34.928 26.439 29.933 24.746 27.219 L 24.746 36.597 L 27.055 37.078 L 26.995 37.497 C 26.995 37.497 26.964 37.989 26.619 38.448 C 26.313 38.854 25.617 39.312 24.51 39.434 C 22.778 39.565 19.019 39.753 19.019 39.753 L 18.492 39.78 L 18.494 39.254 C 18.495 38.998 18.53 38.603 18.686 38.278 C 18.84 37.957 19.227 37.619 19.715 37.457 C 20.064 37.367 20.407 37.274 20.744 37.183 L 20.744 22.502 L 18.491 22.502 L 18.494 22.002 C 18.497 21.447 18.593 20.845 18.854 20.422 C 19.121 19.988 19.693 19.66 20.355 19.581 L 26.476 19.236 L 33.496 30.064 L 33.496 21.523 L 31.219 21.333 L 31.246 20.875 C 31.281 20.279 31.587 19.698 31.972 19.374 C 32.355 19.051 32.942 18.838 33.394 18.782 L 38.996 18.472 L 38.996 19 C 38.996 19.334 38.986 19.739 38.867 20.076 C 38.745 20.425 38.391 20.784 37.937 20.97 Z M 37.924 19.744 C 37.991 19.553 37.969 19.608 37.979 19.529 L 33.452 19.78 C 33.139 19.808 32.877 19.92 32.616 20.139 C 32.356 20.358 32.401 20.322 32.338 20.423 L 34.496 20.602 L 34.496 33.444 L 25.953 20.267 L 20.411 20.579 C 19.982 20.58 19.859 20.697 19.705 20.947 C 19.544 21.207 19.542 21.278 19.515 21.502 L 21.744 21.502 L 21.744 37.949 L 21.374 38.049 C 21.374 38.049 20.32 38.334 19.965 38.425 C 19.705 38.457 19.669 38.54 19.587 38.711 C 19.585 38.715 19.583 38.719 19.581 38.723 C 20.715 38.664 22.716 38.567 24.435 38.437 C 25.287 38.409 25.603 38.135 25.819 37.847 C 25.82 37.846 25.822 37.844 25.823 37.843 L 23.746 37.41 L 23.746 23.721 L 24.671 25.207 C 24.671 25.207 30.388 34.392 32.135 37.09 C 32.842 38.263 33.246 38.379 34.234 38.379 C 35.048 38.379 35.637 38.198 36.494 37.758 L 36.494 20.192 L 36.968 20.198 C 36.968 20.198 37.094 20.2 37.629 20.018 C 37.857 19.984 37.861 19.924 37.924 19.744 Z" style="fill: rgb(255, 255, 255);"/>
</svg>