<svg xmlns="http://www.w3.org/2000/svg" xmlns:xlink="http://www.w3.org/1999/xlink" width="800" zoomAndPan="magnify" viewBox="0 0 600 899.99999" height="1200" preserveAspectRatio="xMidYMid meet" version="1.0"><rect x="-60" width="720" fill="#ffffff" y="-89.999999" height="1079.999988" fill-opacity="1"/><rect x="-60" width="720" fill="#ffffff" y="-89.999999" height="1079.999988" fill-opacity="1"/><path fill="#ffffff" d="M 163.492188 51.691406 C 163.492188 51.703125 163.484375 51.710938 163.472656 51.710938 C 163.457031 51.710938 163.449219 51.703125 163.449219 51.691406 C 163.449219 51.675781 163.457031 51.667969 163.472656 51.667969 C 163.484375 51.667969 163.492188 51.675781 163.492188 51.691406 Z M 163.492188 51.691406 " fill-opacity="1" fill-rule="nonzero"/><path fill="#ffffff" d="M 132.832031 49.722656 L 132.851562 49.746094 L 132.851562 49.753906 L 132.820312 49.765625 C 131.320312 50.3125 130.082031 50.542969 129.035156 51.007812 C 127.96875 51.429688 127.113281 52.207031 126.605469 53.199219 L 126.59375 53.21875 C 125.953125 54.410156 125.394531 56.519531 125.558594 60.109375 C 125.984375 60.417969 126.5 60.65625 127.027344 60.824219 L 127.070312 60.832031 C 128.820312 61.371094 131.746094 61.722656 135.015625 61.671875 C 141.53125 61.597656 149.558594 60.058594 153.820312 58.050781 C 157.492188 56.304688 160.636719 54.191406 163.441406 51.691406 C 149.207031 54.667969 141.167969 53.871094 136.234375 51.8125 C 134.953125 51.253906 133.824219 50.5625 132.832031 49.722656 Z M 132.832031 49.722656 " fill-opacity="1" fill-rule="nonzero"/><path fill="#ffffff" d="M 63.796875 97.015625 C 63.785156 96.757812 63.796875 96.488281 63.785156 96.230469 C 63.785156 96.128906 63.777344 96.054688 63.777344 95.953125 Z M 63.796875 97.015625 " fill-opacity="1" fill-rule="nonzero"/><path fill="#ffffff" d="M 52.882812 51.367188 C 52.285156 51.070312 51.578125 50.851562 50.824219 50.75 L 50.792969 50.75 L 50.792969 50.726562 L 50.578125 50.726562 C 50.039062 50.777344 49.253906 50.964844 47.722656 52.671875 C 44.164062 56.707031 42.921875 59.242188 39.984375 61.609375 C 37.046875 63.96875 33.238281 65.230469 25.628906 66.8125 C 23.21875 67.308594 21.832031 67.855469 20.921875 68.300781 C 21.21875 68.550781 21.1875 68.613281 21.632812 68.851562 C 22.75 69.472656 24.179688 70.019531 25.335938 70.320312 C 28.605469 71.148438 33.984375 72.109375 39.589844 71.148438 C 45.199219 70.175781 51.03125 67.453125 56.007812 60.390625 C 56.867188 59.167969 56.957031 57.367188 56.253906 55.433594 C 55.550781 53.5 53.980469 51.835938 52.882812 51.367188 Z M 52.882812 51.367188 " fill-opacity="1" fill-rule="nonzero"/><path fill="#ffffff" d="M 123.429688 -31.238281 C 116.488281 -31.144531 112.597656 -29.335938 110.550781 -26.964844 C 107.65625 -23.605469 107.386719 -17.707031 109.1875 -10.445312 C 110.976562 -3.175781 114.667969 4.957031 118.144531 11.710938 C 119.882812 15.09375 121.566406 18.132812 122.921875 20.605469 C 124.289062 23.089844 125.292969 24.847656 125.902344 26.347656 C 126.460938 27.734375 127.089844 28.953125 127.722656 30.089844 C 130.410156 24.351562 130.886719 18.714844 130.617188 12.835938 C 130.265625 5.566406 128.589844 -1.871094 128.839844 -9.402344 C 129.117188 -18.203125 130.835938 -23.933594 130.980469 -30.742188 C 128.714844 -31.050781 126.085938 -31.238281 123.429688 -31.238281 Z M 124.710938 -26.003906 L 124.703125 -25.921875 C 124.703125 -25.890625 124.703125 -25.859375 124.703125 -25.816406 C 124.703125 -25.34375 124.566406 -24.886719 124.328125 -24.515625 L 124.339844 -24.523438 C 124.019531 -23.933594 123.648438 -23.417969 123.210938 -22.972656 C 122.199219 -21.847656 120.84375 -21.058594 119.3125 -20.789062 L 119.269531 -20.78125 C 119.054688 -20.75 118.804688 -20.738281 118.546875 -20.738281 C 117.242188 -20.738281 116.042969 -21.152344 115.0625 -21.855469 L 115.082031 -21.847656 C 114.574219 -22.199219 114.128906 -22.601562 113.769531 -23.054688 L 113.757812 -23.066406 C 113.4375 -23.417969 113.210938 -23.875 113.117188 -24.359375 L 113.117188 -24.378906 C 113.117188 -24.433594 113.105469 -24.484375 113.105469 -24.535156 C 113.105469 -24.980469 113.269531 -25.394531 113.550781 -25.703125 C 113.882812 -26.085938 114.273438 -26.398438 114.730469 -26.625 L 114.75 -26.636719 C 115.734375 -27.195312 117.058594 -27.605469 118.558594 -27.835938 C 119.117188 -27.917969 119.675781 -27.960938 120.191406 -27.96875 L 120.191406 -27.9375 L 120.699219 -27.9375 C 121.371094 -27.917969 121.992188 -27.84375 122.539062 -27.710938 C 123.089844 -27.585938 123.5625 -27.402344 123.945312 -27.140625 C 124.328125 -26.882812 124.617188 -26.488281 124.710938 -26.003906 Z M 124.710938 -26.003906 " fill-opacity="1" fill-rule="nonzero"/><path fill="#ffffff" d="M 9.59375 14.347656 C 9.59375 12.484375 9.738281 10.664062 10.007812 8.875 L 9.988281 9.074219 C 11.042969 1.429688 11.1875 -5.71875 11.0625 -11.367188 C 10.9375 -16.871094 10.546875 -20.53125 10.546875 -22.816406 C 10.546875 -22.847656 10.546875 -22.878906 10.546875 -22.910156 C 10.546875 -22.941406 10.546875 -22.984375 10.546875 -23.015625 L 10.546875 -23.066406 L 10.535156 -23.128906 L 10.535156 -23.140625 C 10.535156 -23.160156 10.535156 -23.167969 10.535156 -23.191406 C 10.535156 -35.4375 12.6875 -47.179688 16.585938 -58.070312 C 19.453125 -65.765625 23.714844 -73.574219 30.09375 -79.90625 C 23.816406 -81.996094 12.6875 -85.183594 0.625 -85.78125 C -0.53125 -85.84375 -1.886719 -85.886719 -3.242188 -85.886719 L -3.253906 -85.886719 L -3.253906 -85.875 C -4.546875 -85.875 -5.851562 -85.832031 -7.132812 -85.761719 C -17.457031 -85.160156 -27.21875 -82.128906 -34.191406 -74.640625 C -41.183594 -67.152344 -45.789062 -54.875 -44.785156 -34.546875 C -44.589844 -30.699219 -42.933594 -19.921875 -40.097656 -7.117188 C -37.253906 5.691406 -33.25 20.761719 -28.429688 34.074219 C -23.601562 47.386719 -17.746094 58.972656 -12.179688 64.453125 C -9.378906 67.195312 -6.945312 68.300781 -4.742188 68.207031 C -2.53125 68.105469 0.140625 66.8125 3.398438 62.851562 C 9.800781 55.050781 15.851562 48.152344 22.101562 41.449219 L 21.894531 41.667969 C 14.339844 34.996094 9.59375 25.238281 9.59375 14.347656 Z M 9.59375 14.347656 " fill-opacity="1" fill-rule="nonzero"/><path fill="#ffffff" d="M 64.613281 -86.390625 L 64.613281 -86.414062 C 52.53125 -86.382812 43.875 -82.6875 37.296875 -77.15625 C 30.519531 -71.433594 25.980469 -63.605469 22.988281 -55.585938 C 19.441406 -46.070312 18.230469 -36.867188 17.746094 -30.617188 L 17.878906 -30.699219 C 21.53125 -32.769531 26.320312 -34.835938 31.449219 -36.039062 C 36.582031 -37.238281 42.105469 -37.601562 47.113281 -35.632812 C 52.117188 -33.667969 56.253906 -29.046875 57.753906 -22.03125 C 64.945312 11.660156 55.519531 24.183594 52.046875 33.640625 C 50.9375 36.359375 49.789062 39.855469 48.828125 43.425781 L 48.664062 44.117188 C 49.097656 44.015625 49.542969 43.890625 49.976562 43.847656 C 52.429688 43.640625 54.351562 44.46875 55.488281 44.964844 C 58.984375 46.433594 61.386719 49.515625 62.679688 53.035156 C 63.019531 53.953125 63.257812 54.949219 63.402344 55.972656 C 63.539062 56.324219 63.609375 56.738281 63.609375 57.160156 C 63.609375 57.203125 63.609375 57.246094 63.609375 57.285156 C 63.445312 62.457031 63.339844 68.53125 63.339844 74.632812 C 63.339844 81.863281 63.484375 89.0625 63.753906 96.230469 C 63.992188 101.671875 64.335938 106.492188 64.757812 110.289062 C 65.203125 114.15625 65.824219 117.085938 66.214844 118.078125 C 67.519531 121.386719 69.433594 125.722656 72.886719 128.667969 C 76.34375 131.605469 81.296875 133.574219 90.347656 131.605469 C 98.199219 129.898438 103.042969 127.53125 106.277344 124.128906 C 109.515625 120.726562 111.441406 115.988281 112.671875 108.738281 C 114.523438 97.875 118.238281 66.378906 118.691406 60.449219 C 118.484375 55.980469 119.136719 52.546875 120.554688 49.929688 C 122 47.242188 124.257812 45.597656 126.191406 44.707031 C 127.164062 44.261719 128.074219 43.960938 128.820312 43.746094 C 127.910156 42.433594 127.089844 41.335938 126.242188 40.269531 L 126.335938 40.382812 C 123.65625 37.113281 121.371094 33.359375 119.644531 29.316406 L 119.53125 29.015625 C 118.484375 26.855469 117.605469 25.21875 116.683594 23.617188 L 116.902344 24.019531 C 115.546875 21.535156 113.828125 18.433594 112.03125 14.949219 C 108.429688 7.964844 104.519531 -0.496094 102.484375 -8.738281 C 100.457031 -16.972656 100.164062 -25.496094 105.359375 -31.507812 C 109.949219 -36.84375 118.03125 -39.058594 130.140625 -37.816406 C 129.789062 -38.902344 129.574219 -39.804688 128.964844 -41.25 C 126.015625 -48.179688 122.46875 -54.160156 118.257812 -59.582031 C 107.984375 -72.839844 91.382812 -85.96875 65.75 -86.390625 Z M 64.613281 -86.390625 " fill-opacity="1" fill-rule="nonzero"/><path fill="#ffffff" d="M 45.621094 31.207031 C 49.769531 19.890625 57.929688 11.636719 51.0625 -20.574219 C 49.933594 -25.847656 47.710938 -27.980469 44.648438 -29.179688 C 43.160156 -29.726562 41.433594 -30.046875 39.621094 -30.046875 C 39.507812 -30.046875 39.382812 -30.046875 39.269531 -30.046875 L 39.292969 -30.046875 C 37.089844 -30.027344 34.957031 -29.75 32.910156 -29.253906 C 28.566406 -28.15625 24.738281 -26.605469 21.179688 -24.617188 C 19.84375 -23.882812 18.695312 -23.117188 17.621094 -22.257812 L 17.425781 -22.074219 C 17.484375 -20.5625 17.777344 -16.902344 17.898438 -11.511719 C 18.023438 -5.617188 17.878906 1.902344 16.75 10.042969 C 14.3125 27.734375 26.992188 42.378906 41.886719 42.402344 C 42.765625 38.769531 44.195312 35.085938 45.621094 31.207031 Z M 36.820312 -20.191406 C 36.332031 -20.6875 35.941406 -21.246094 35.621094 -21.855469 L 35.597656 -21.898438 C 35.328125 -22.332031 35.175781 -22.859375 35.175781 -23.429688 C 35.175781 -23.53125 35.183594 -23.636719 35.195312 -23.738281 L 35.195312 -23.726562 C 35.351562 -24.84375 36.261719 -25.425781 37.140625 -25.746094 C 37.957031 -26.015625 38.867188 -26.167969 39.839844 -26.167969 C 39.984375 -26.167969 40.128906 -26.167969 40.292969 -26.160156 L 40.285156 -26.199219 C 40.824219 -26.199219 41.402344 -26.148438 41.980469 -26.066406 C 43.542969 -25.847656 44.9375 -25.425781 45.996094 -24.804688 C 46.523438 -24.515625 46.976562 -24.152344 47.339844 -23.71875 L 47.347656 -23.707031 C 47.699219 -23.304688 47.90625 -22.777344 47.90625 -22.1875 C 47.90625 -22.105469 47.90625 -22.023438 47.898438 -21.9375 L 47.898438 -21.949219 C 47.792969 -21.328125 47.515625 -20.789062 47.132812 -20.355469 C 46.707031 -19.839844 46.230469 -19.394531 45.695312 -19.023438 L 45.671875 -19.011719 C 44.628906 -18.246094 43.316406 -17.789062 41.898438 -17.789062 C 41.617188 -17.789062 41.339844 -17.8125 41.070312 -17.84375 L 41.101562 -17.84375 C 39.382812 -18.132812 37.914062 -18.980469 36.820312 -20.191406 Z M 36.820312 -20.191406 " fill-opacity="1" fill-rule="nonzero"/><path fill="#ffffff" d="M 123.769531 -63.800781 C 128.25 -58.058594 132.128906 -51.523438 135.117188 -44.507812 L 135.335938 -43.941406 C 136.460938 -41.210938 137.21875 -38.902344 137.640625 -37.113281 C 137.859375 -36.214844 138.003906 -35.457031 138.054688 -34.671875 C 138.078125 -34.277344 138.097656 -33.875 137.929688 -33.183594 C 137.929688 -33.152344 137.878906 -33.078125 137.871094 -33.046875 C 138.179688 -23.988281 135.957031 -17.84375 135.695312 -9.195312 C 135.492188 -2.925781 137.074219 4.4375 137.464844 12.476562 C 137.839844 20.027344 136.9375 28.324219 132.085938 36.464844 C 132.5 36.960938 132.863281 37.457031 133.257812 37.953125 C 146.070312 17.523438 155.308594 -5.078125 160.234375 -24.347656 C 162.871094 -34.722656 164.265625 -44.125 164.390625 -51.574219 C 164.496094 -59.023438 163.117188 -64.421875 161.382812 -66.675781 C 147.664062 -84.425781 129.117188 -88.945312 113.5625 -89.070312 L 113.5625 -89.0625 L 112.070312 -89.0625 C 106.070312 -88.96875 100.28125 -88.273438 94.683594 -87.066406 C 107.386719 -81.355469 117.003906 -72.5625 123.769531 -63.800781 Z M 123.769531 -63.800781 " fill-opacity="1" fill-rule="nonzero"/><path fill="#ffffff" d="M 66.320312 -99.941406 L 66.214844 -99.941406 C 54.175781 -100.148438 43.84375 -97.191406 35.496094 -92.265625 C 27.28125 -95.152344 10.246094 -100.128906 -7.722656 -99.136719 C -20.226562 -98.441406 -33.882812 -94.59375 -44 -83.785156 C -54.082031 -72.976562 -59.410156 -56.25 -58.292969 -33.492188 C -57.984375 -27.214844 -56.214844 -16.972656 -53.289062 -3.710938 C -50.347656 9.546875 -46.234375 25.074219 -41.089844 39.234375 C -35.949219 53.40625 -30.324219 66.128906 -21.519531 74.777344 C -17.125 79.113281 -11.074219 82.753906 -3.945312 82.453125 C 1.058594 82.246094 5.582031 80.023438 9.492188 76.742188 C 11.394531 79.277344 13.421875 80.382812 15.273438 81.40625 C 17.601562 82.699219 19.867188 83.578125 22.214844 84.160156 C 26.433594 85.226562 33.652344 86.652344 42.117188 85.195312 C 45 84.707031 48.03125 83.753906 51.050781 82.402344 C 51.167969 85.8125 51.300781 89.15625 51.425781 92.539062 C 51.847656 103.253906 52.109375 113.152344 55.28125 121.832031 C 55.789062 123.25 57.195312 130.550781 62.710938 136.996094 C 68.222656 143.449219 79.042969 147.476562 91.351562 144.804688 C 100.042969 142.921875 111.078125 139.53125 118.421875 128.960938 C 125.675781 118.511719 128.941406 103.523438 129.59375 79.214844 C 129.761719 77.902344 129.957031 76.785156 130.152344 75.738281 L 131.878906 75.894531 L 132.085938 75.894531 C 141.355469 76.320312 151.410156 74.984375 159.808594 71.03125 C 167.246094 67.546875 172.875 64.019531 176.980469 57.761719 C 178.003906 56.210938 179.121094 54.335938 179.429688 51.109375 C 179.742188 47.882812 177.910156 42.835938 174.871094 40.507812 C 168.789062 35.832031 164.96875 37.613281 160.875 38.46875 C 157.222656 39.328125 153.003906 39.867188 148.679688 39.980469 L 148.597656 39.980469 C 160.410156 19.839844 168.878906 -1.550781 173.710938 -20.480469 C 176.578125 -31.652344 178.179688 -41.953125 178.304688 -50.964844 C 178.4375 -59.972656 177.714844 -67.949219 172.378906 -74.847656 C 155.710938 -96.40625 132.285156 -102.363281 114.152344 -102.570312 C 113.59375 -102.582031 113.023438 -102.589844 112.464844 -102.582031 L 112.464844 -102.613281 C 102.597656 -102.527344 93.101562 -101.039062 84.113281 -98.382812 L 83.6875 -98.234375 C 78.496094 -99.207031 72.464844 -99.828125 66.320312 -99.941406 Z M 90.824219 -93.355469 C 97.15625 -94.914062 104.4375 -95.855469 111.925781 -95.949219 L 111.988281 -95.949219 L 112 -95.992188 C 129.148438 -96.15625 151.046875 -91.285156 166.78125 -70.9375 C 170.320312 -66.367188 171.375 -59.683594 171.25 -51.449219 C 171.113281 -43.226562 169.613281 -33.378906 166.863281 -22.589844 C 161.527344 -1.695312 151.449219 22.664062 137.257812 44.519531 C 137.726562 44.863281 138.261719 45.164062 138.820312 45.390625 L 138.871094 45.410156 C 141.832031 46.652344 148.585938 47.71875 162.0625 44.914062 C 165.457031 44.191406 167.9375 43.703125 170.515625 45.691406 C 171.671875 46.683594 172.398438 48.152344 172.398438 49.796875 C 172.398438 49.898438 172.398438 50.003906 172.386719 50.105469 L 172.386719 50.097656 C 172.230469 51.410156 171.765625 52.589844 171.054688 53.570312 C 168.445312 57.535156 163.304688 61.289062 156.726562 64.382812 C 150.890625 67.132812 142.523438 68.570312 135.109375 68.652344 C 131.382812 68.695312 127.960938 68.40625 125.042969 67.484375 L 124.855469 67.414062 C 123.730469 78.378906 121.144531 100.027344 119.457031 109.90625 C 118.113281 117.871094 115.753906 124.199219 111.242188 128.9375 C 106.746094 133.675781 100.382812 136.53125 91.816406 138.394531 C 81.214844 140.699219 73.476562 138.21875 68.492188 133.964844 C 63.515625 129.722656 61.242188 124.097656 59.867188 120.652344 C 58.925781 118.273438 58.4375 115.191406 57.960938 111.074219 C 57.488281 106.957031 57.144531 101.917969 56.90625 96.242188 C 56.679688 90.46875 56.554688 83.683594 56.554688 76.867188 C 56.554688 74.621094 56.574219 72.386719 56.597656 70.144531 C 52.324219 74.117188 46.925781 76.90625 40.925781 77.972656 L 40.738281 78.003906 C 33.695312 79.214844 27.417969 78.023438 23.660156 77.074219 C 21.664062 76.566406 19.925781 75.851562 18.292969 74.964844 C 16.574219 74.03125 14.941406 72.96875 13.84375 70.886719 C 13.410156 70.089844 13.152344 69.128906 13.152344 68.117188 C 13.152344 67.710938 13.195312 67.308594 13.277344 66.9375 C 13.648438 65.550781 14.425781 64.371094 15.488281 63.542969 L 15.5 63.535156 C 17.527344 61.867188 20.195312 60.9375 24.242188 60.089844 C 31.585938 58.558594 34.152344 57.511719 35.710938 56.261719 C 37.035156 55.1875 38.546875 53.011719 41.195312 49.828125 C 41.183594 49.734375 41.175781 49.578125 41.164062 49.433594 L 41.164062 49.402344 C 36.15625 49.257812 31.492188 47.902344 27.417969 45.617188 L 27.570312 45.699219 C 26.039062 47.335938 18.210938 55.714844 8.671875 67.339844 C 4.660156 72.203125 0.222656 74.996094 -4.453125 75.191406 C -9.128906 75.386719 -13.359375 73.007812 -16.960938 69.480469 C -24.148438 62.417969 -29.878906 50.261719 -34.875 36.523438 C -39.859375 22.789062 -43.914062 7.488281 -46.800781 -5.542969 C -49.699219 -18.578125 -51.394531 -29.085938 -51.640625 -34.15625 C -52.71875 -55.691406 -47.742188 -70.203125 -39.210938 -79.359375 C -30.664062 -88.511719 -18.957031 -91.976562 -7.546875 -92.640625 C 12.945312 -93.828125 32.390625 -86.597656 36.332031 -85.046875 C 43.925781 -90.261719 53.699219 -93.507812 65.894531 -93.300781 C 72.039062 -93.207031 77.945312 -92.390625 83.59375 -90.933594 L 83.078125 -91.046875 L 83.285156 -91.140625 C 85.261719 -91.886719 87.785156 -92.640625 90.371094 -93.261719 Z M 90.824219 -93.355469 " fill-opacity="1" fill-rule="nonzero"/><path fill="#040606" d="M 412 558 C 412 560.203125 410.203125 562 408 562 L 272 562 C 269.796875 562 268 560.203125 268 558 L 268 470 C 268 467.796875 269.796875 466 272 466 L 408 466 C 410.203125 466 412 467.796875 412 470 Z M 188 510 L 188 474.46875 C 201.765625 484.09375 231.265625 489.125 260 489.890625 L 260 529.84375 C 215.3125 528.625 188 517.671875 188 510 Z M 188 422.390625 C 202.703125 432.671875 235.484375 438 268 438 C 300.515625 438 333.3125 432.671875 348 422.390625 L 348 458 L 272 458 C 265.375 458 260 463.375 260 470 L 260 481.859375 C 215.3125 480.640625 188 469.671875 188 462 Z M 188 370.390625 C 202.703125 380.671875 235.484375 386 268 386 C 300.515625 386 333.3125 380.671875 348 370.390625 L 348 410 C 348 418.15625 316.84375 430 268 430 C 219.171875 430 188 418.15625 188 410 Z M 268 338 C 316.84375 338 348 349.84375 348 358 C 348 366.15625 316.84375 378 268 378 C 219.171875 378 188 366.15625 188 358 C 188 349.84375 219.171875 338 268 338 Z M 408 458 L 356 458 L 356 358 C 356 339.625 311.734375 330 268 330 C 224.265625 330 180 339.625 180 358 L 180 510 C 180 527.0625 219.609375 536.78125 260 537.875 L 260 558 C 260 564.625 265.375 570 272 570 L 408 570 C 414.625 570 420 564.625 420 558 L 420 470 C 420 463.375 414.625 458 408 458 " fill-opacity="1" fill-rule="nonzero"/><path fill="#040606" d="M 346.828125 527.171875 C 345.265625 525.609375 342.734375 525.609375 341.171875 527.171875 C 339.609375 528.734375 339.609375 531.265625 341.171875 532.828125 L 342.046875 533.703125 C 341.390625 533.875 340.703125 534 340 534 C 335.59375 534 332 530.40625 332 526 L 332 502 C 332 497.59375 335.59375 494 340 494 C 344.40625 494 348 497.59375 348 502 L 348 526 C 348 526.703125 347.875 527.390625 347.703125 528.046875 Z M 340 486 C 331.171875 486 324 493.171875 324 502 L 324 526 C 324 534.828125 331.171875 542 340 542 C 342.953125 542 345.703125 541.140625 348.078125 539.734375 L 349.171875 540.828125 C 349.953125 541.609375 350.96875 542 352 542 C 353.03125 542 354.046875 541.609375 354.828125 540.828125 C 356.390625 539.265625 356.390625 536.734375 354.828125 535.171875 L 353.734375 534.078125 C 355.140625 531.703125 356 528.953125 356 526 L 356 502 C 356 493.171875 348.828125 486 340 486 " fill-opacity="1" fill-rule="nonzero"/><path fill="#040606" d="M 300 494 C 304.40625 494 308 497.59375 308 502 C 308 504.203125 309.796875 506 312 506 C 314.203125 506 316 504.203125 316 502 C 316 493.171875 308.828125 486 300 486 C 291.171875 486 284 493.171875 284 502 C 284 510.828125 291.171875 518 300 518 C 304.40625 518 308 521.59375 308 526 C 308 530.40625 304.40625 534 300 534 C 295.59375 534 292 530.40625 292 526 C 292 523.796875 290.203125 522 288 522 C 285.796875 522 284 523.796875 284 526 C 284 534.828125 291.171875 542 300 542 C 308.828125 542 316 534.828125 316 526 C 316 517.171875 308.828125 510 300 510 C 295.59375 510 292 506.40625 292 502 C 292 497.59375 295.59375 494 300 494 " fill-opacity="1" fill-rule="nonzero"/><path fill="#040606" d="M 392 534 L 372 534 L 372 490 C 372 487.796875 370.203125 486 368 486 C 365.796875 486 364 487.796875 364 490 L 364 538 C 364 540.203125 365.796875 542 368 542 L 392 542 C 394.203125 542 396 540.203125 396 538 C 396 535.796875 394.203125 534 392 534 " fill-opacity="1" fill-rule="nonzero"/></svg>