<svg xmlns="http://www.w3.org/2000/svg" xmlns:xlink="http://www.w3.org/1999/xlink" width="800" zoomAndPan="magnify" viewBox="0 0 600 899.99999" height="1200" preserveAspectRatio="xMidYMid meet" version="1.0"><defs><clipPath id="f688c01af0"><path d="M 113.742188 298 L 331 298 L 331 535 L 113.742188 535 Z M 113.742188 298 " clip-rule="nonzero"/></clipPath><clipPath id="b1f405a29d"><path d="M 113.742188 266.503906 L 331 266.503906 L 331 331 L 113.742188 331 Z M 113.742188 266.503906 " clip-rule="nonzero"/></clipPath><clipPath id="b216e97f66"><path d="M 113.742188 349 L 331 349 L 331 407 L 113.742188 407 Z M 113.742188 349 " clip-rule="nonzero"/></clipPath><clipPath id="8dcf4e52ad"><path d="M 113.742188 425 L 277 425 L 277 484 L 113.742188 484 Z M 113.742188 425 " clip-rule="nonzero"/></clipPath><clipPath id="9dd0e5faa5"><path d="M 253 406 L 483.492188 406 L 483.492188 636.253906 L 253 636.253906 Z M 253 406 " clip-rule="nonzero"/></clipPath><clipPath id="42773bd723"><path d="M 60 187.476562 L 356 187.476562 L 356 275 L 60 275 Z M 60 187.476562 " clip-rule="nonzero"/></clipPath><clipPath id="15461d549d"><path d="M 251 378 L 564 378 L 564 691.476562 L 251 691.476562 Z M 251 378 " clip-rule="nonzero"/></clipPath></defs><g clip-path="url(#f688c01af0)"><path fill="#4184a9" d="M 113.742188 298.378906 L 113.742188 502.378906 C 113.742188 519.984375 162.25 534.253906 222.117188 534.253906 C 233.398438 534.253906 244.304688 533.730469 254.566406 532.859375 L 330.492188 413.328125 L 330.492188 298.378906 L 113.742188 298.378906 " fill-opacity="1" fill-rule="nonzero"/></g><g clip-path="url(#b1f405a29d)"><path fill="#35718a" d="M 330.492188 298.378906 C 330.492188 315.984375 281.980469 330.253906 222.117188 330.253906 C 162.277344 330.253906 113.742188 315.984375 113.742188 298.378906 C 113.742188 280.773438 162.277344 266.503906 222.117188 266.503906 C 281.980469 266.503906 330.492188 280.773438 330.492188 298.378906 " fill-opacity="1" fill-rule="nonzero"/></g><g clip-path="url(#b216e97f66)"><path fill="#6de08e" d="M 113.742188 374.878906 C 113.742188 392.484375 162.277344 406.753906 222.117188 406.753906 C 281.980469 406.753906 330.492188 392.484375 330.492188 374.878906 L 330.492188 349.378906 C 330.492188 366.984375 281.980469 381.253906 222.117188 381.253906 C 162.277344 381.253906 113.742188 366.984375 113.742188 349.378906 L 113.742188 374.878906 " fill-opacity="1" fill-rule="nonzero"/></g><g clip-path="url(#8dcf4e52ad)"><path fill="#6de08e" d="M 261.339844 481.136719 C 249.136719 482.480469 235.9375 483.253906 222.117188 483.253906 C 162.25 483.253906 113.742188 468.984375 113.742188 451.378906 L 113.742188 425.878906 C 113.742188 443.484375 162.25 457.753906 222.117188 457.753906 C 241.863281 457.753906 260.441406 456.234375 276.378906 453.496094 L 261.339844 481.136719 " fill-opacity="1" fill-rule="nonzero"/></g><g clip-path="url(#9dd0e5faa5)"><path fill="#35718a" d="M 483.492188 521.503906 C 483.492188 584.878906 432.117188 636.253906 368.742188 636.253906 C 305.367188 636.253906 253.992188 584.878906 253.992188 521.503906 C 253.992188 458.125 305.367188 406.753906 368.742188 406.753906 C 432.117188 406.753906 483.492188 458.125 483.492188 521.503906 " fill-opacity="1" fill-rule="nonzero"/></g><path fill="#ffffff" d="M 311.367188 489.628906 C 318.390625 489.628906 324.117188 495.355469 324.117188 502.378906 C 324.117188 505.890625 326.980469 508.753906 330.492188 508.753906 C 334.003906 508.753906 336.867188 505.890625 336.867188 502.378906 C 336.867188 488.308594 325.4375 476.878906 311.367188 476.878906 C 297.296875 476.878906 285.867188 488.308594 285.867188 502.378906 C 285.867188 516.449219 297.296875 527.878906 311.367188 527.878906 C 318.390625 527.878906 324.117188 533.605469 324.117188 540.628906 C 324.117188 547.648438 318.390625 553.378906 311.367188 553.378906 C 304.34375 553.378906 298.617188 547.648438 298.617188 540.628906 C 298.617188 537.117188 295.753906 534.253906 292.242188 534.253906 C 288.730469 534.253906 285.867188 537.117188 285.867188 540.628906 C 285.867188 554.699219 297.296875 566.128906 311.367188 566.128906 C 325.4375 566.128906 336.867188 554.699219 336.867188 540.628906 C 336.867188 526.558594 325.4375 515.128906 311.367188 515.128906 C 304.34375 515.128906 298.617188 509.398438 298.617188 502.378906 C 298.617188 495.355469 304.34375 489.628906 311.367188 489.628906 " fill-opacity="1" fill-rule="nonzero"/><path fill="#ffffff" d="M 386.796875 537.089844 C 384.855469 534.152344 380.894531 533.382812 377.957031 535.324219 C 375.015625 537.265625 374.21875 541.226562 376.1875 544.164062 L 381.242188 551.734375 C 379.398438 552.753906 377.332031 553.378906 375.117188 553.378906 C 368.09375 553.378906 362.367188 547.648438 362.367188 540.628906 L 362.367188 502.378906 C 362.367188 495.355469 368.09375 489.628906 375.117188 489.628906 C 382.140625 489.628906 387.867188 495.355469 387.867188 502.378906 L 387.867188 538.710938 Z M 375.117188 476.878906 C 361.046875 476.878906 349.617188 488.308594 349.617188 502.378906 L 349.617188 540.628906 C 349.617188 554.699219 361.046875 566.128906 375.117188 566.128906 C 379.972656 566.128906 384.457031 564.707031 388.316406 562.34375 L 388.9375 563.289062 C 390.15625 565.132812 392.175781 566.128906 394.242188 566.128906 C 395.460938 566.128906 396.683594 565.777344 397.777344 565.058594 C 400.714844 563.113281 401.511719 559.15625 399.546875 556.214844 L 397.328125 552.90625 C 399.347656 549.242188 400.617188 545.109375 400.617188 540.628906 L 400.617188 502.378906 C 400.617188 488.308594 389.1875 476.878906 375.117188 476.878906 " fill-opacity="1" fill-rule="nonzero"/><path fill="#ffffff" d="M 445.242188 553.378906 L 426.117188 553.378906 L 426.117188 483.253906 C 426.117188 479.742188 423.253906 476.878906 419.742188 476.878906 C 416.230469 476.878906 413.367188 479.742188 413.367188 483.253906 L 413.367188 559.753906 C 413.367188 563.265625 416.230469 566.128906 419.742188 566.128906 L 445.242188 566.128906 C 448.753906 566.128906 451.617188 563.265625 451.617188 559.753906 C 451.617188 556.242188 448.753906 553.378906 445.242188 553.378906 " fill-opacity="1" fill-rule="nonzero"/><path fill="#4184a9" d="M 60 230.925781 L 60 508.992188 C 60 532.992188 126.121094 552.441406 207.722656 552.441406 C 223.101562 552.441406 237.96875 551.730469 251.953125 550.539062 L 355.449219 387.609375 L 355.449219 230.925781 L 60 230.925781 " fill-opacity="1" fill-rule="nonzero"/><g clip-path="url(#42773bd723)"><path fill="#35718a" d="M 355.449219 230.925781 C 355.449219 254.921875 289.324219 274.371094 207.722656 274.371094 C 126.15625 274.371094 60 254.921875 60 230.925781 C 60 206.925781 126.15625 187.476562 207.722656 187.476562 C 289.324219 187.476562 355.449219 206.925781 355.449219 230.925781 " fill-opacity="1" fill-rule="nonzero"/></g><path fill="#6de08e" d="M 60 335.199219 C 60 359.199219 126.15625 378.648438 207.722656 378.648438 C 289.324219 378.648438 355.449219 359.199219 355.449219 335.199219 L 355.449219 300.441406 C 355.449219 324.441406 289.324219 343.890625 207.722656 343.890625 C 126.15625 343.890625 60 324.441406 60 300.441406 L 60 335.199219 " fill-opacity="1" fill-rule="nonzero"/><path fill="#6de08e" d="M 261.1875 480.039062 C 244.554688 481.871094 226.5625 482.925781 207.722656 482.925781 C 126.121094 482.925781 60 463.472656 60 439.476562 L 60 404.71875 C 60 428.714844 126.121094 448.164062 207.722656 448.164062 C 234.640625 448.164062 259.964844 446.09375 281.6875 442.363281 L 261.1875 480.039062 " fill-opacity="1" fill-rule="nonzero"/><g clip-path="url(#15461d549d)"><path fill="#35718a" d="M 564 535.0625 C 564 621.449219 493.972656 691.476562 407.585938 691.476562 C 321.199219 691.476562 251.171875 621.449219 251.171875 535.0625 C 251.171875 448.675781 321.199219 378.648438 407.585938 378.648438 C 493.972656 378.648438 564 448.675781 564 535.0625 " fill-opacity="1" fill-rule="nonzero"/></g><path fill="#ffffff" d="M 329.378906 491.613281 C 338.953125 491.613281 346.757812 499.421875 346.757812 508.992188 C 346.757812 513.78125 350.664062 517.683594 355.449219 517.683594 C 360.234375 517.683594 364.136719 513.78125 364.136719 508.992188 C 364.136719 489.816406 348.558594 474.234375 329.378906 474.234375 C 310.199219 474.234375 294.621094 489.816406 294.621094 508.992188 C 294.621094 528.171875 310.199219 543.753906 329.378906 543.753906 C 338.953125 543.753906 346.757812 551.558594 346.757812 561.132812 C 346.757812 570.703125 338.953125 578.511719 329.378906 578.511719 C 319.808594 578.511719 312 570.703125 312 561.132812 C 312 556.34375 308.097656 552.441406 303.308594 552.441406 C 298.523438 552.441406 294.621094 556.34375 294.621094 561.132812 C 294.621094 580.308594 310.199219 595.890625 329.378906 595.890625 C 348.558594 595.890625 364.136719 580.308594 364.136719 561.132812 C 364.136719 541.953125 348.558594 526.371094 329.378906 526.371094 C 319.808594 526.371094 312 518.566406 312 508.992188 C 312 499.421875 319.808594 491.613281 329.378906 491.613281 " fill-opacity="1" fill-rule="nonzero"/><path fill="#ffffff" d="M 432.195312 556.3125 C 429.546875 552.304688 424.152344 551.253906 420.144531 553.902344 C 416.140625 556.550781 415.054688 561.945312 417.734375 565.953125 L 424.625 576.269531 C 422.113281 577.660156 419.296875 578.511719 416.277344 578.511719 C 406.703125 578.511719 398.898438 570.703125 398.898438 561.132812 L 398.898438 508.992188 C 398.898438 499.421875 406.703125 491.613281 416.277344 491.613281 C 425.847656 491.613281 433.65625 499.421875 433.65625 508.992188 L 433.65625 558.519531 Z M 416.277344 474.234375 C 397.097656 474.234375 381.515625 489.816406 381.515625 508.992188 L 381.515625 561.132812 C 381.515625 580.308594 397.097656 595.890625 416.277344 595.890625 C 422.894531 595.890625 429.003906 593.957031 434.265625 590.730469 L 435.113281 592.019531 C 436.777344 594.53125 439.527344 595.890625 442.34375 595.890625 C 444.007812 595.890625 445.671875 595.414062 447.164062 594.429688 C 451.171875 591.78125 452.257812 586.386719 449.574219 582.378906 L 446.554688 577.867188 C 449.304688 572.875 451.035156 567.242188 451.035156 561.132812 L 451.035156 508.992188 C 451.035156 489.816406 435.453125 474.234375 416.277344 474.234375 " fill-opacity="1" fill-rule="nonzero"/><path fill="#ffffff" d="M 511.863281 578.511719 L 485.792969 578.511719 L 485.792969 482.925781 C 485.792969 478.136719 481.890625 474.234375 477.101562 474.234375 C 472.316406 474.234375 468.414062 478.136719 468.414062 482.925781 L 468.414062 587.199219 C 468.414062 591.988281 472.316406 595.890625 477.101562 595.890625 L 511.863281 595.890625 C 516.648438 595.890625 520.550781 591.988281 520.550781 587.199219 C 520.550781 582.414062 516.648438 578.511719 511.863281 578.511719 " fill-opacity="1" fill-rule="nonzero"/></svg>